<svg class="variation-svg fade-enter-done" viewBox="2 219.813 479.5100067138672 211.0173944091797" xmlns="http://www.w3.org/2000/svg" xmlns:xlink="http://www.w3.org/1999/xlink" style="transform: scale(1);">
    <image
        height="71.01739440917969"
        width="74"
        y="289.813"
        x="72"
        preserveAspectRatio="xMinYMin"
        href="635a1787a1e007094c225dc2.png"
        style="position: absolute;"
    ></image>
    <g>
        <svg data-layer-type="text" y="351.9220001907349" viewBox="0 0 0 0" x="164.55" height="0" width="0" style="position: absolute;">
            <g
                data-horizontal-grow="left"
                style="fill: rgb(255, 255, 255); font-size: 13px; font-weight: 400; font-style: normal; font-family: 'Ropa Sans'; dominant-baseline: hanging; text-transform: uppercase; fill-opacity: 1; letter-spacing: 3px;"
            >
                <path d="" transform="translate(0, 0)"></path>
            </g>
        </svg>
    </g>
    <g>
        <svg data-layer-type="text" y="312.07499980926514" viewBox="3.4200000762939453 9.649999618530273 246.9600067138672 26.149999618530273" x="164.55" height="26.149999618530273" width="246.9600067138672" style="position: absolute;">
            <g
                data-horizontal-grow="left"
                style="fill: rgb(20, 0, 0); font-size: 38px; font-weight: 400; font-style: normal; font-family: Belleza; dominant-baseline: hanging; text-transform: uppercase; letter-spacing: 0px; fill-opacity: 1;"
            >
                <path
                    d="M22.53 35.68L21.89 35.68L5.24 14.86L5.09 14.86L5.09 35.26L3.42 35.26L3.42 10.11L6.23 10.11L20.71 28.39L20.86 28.39L20.86 10.11L22.53 10.11L22.53 35.68ZM44.46 35.26L29.37 35.26L29.37 10.11L44.61 10.11L44.23 12.65L37.16 11.48Q36.06 11.48 35.11 11.65Q34.16 11.82 33.06 12.12L33.06 12.12L33.06 21.36L41.50 21.36L41.50 22.80L33.06 22.80L33.06 33.90L44.84 32.72L44.46 35.26ZM50.77 35.26L48.45 35.26L57.95 23.07L48.91 10.11L53.66 10.11L59.96 20.56L67.87 10.11L70.19 10.11L60.80 21.74L70.72 35.26L65.97 35.26L58.82 24.17L50.77 35.26ZM84.13 35.72L84.13 35.72Q81.32 35.72 79.53 34.94Q77.75 34.16 76.74 32.96Q75.73 31.77 75.32 30.42Q74.90 29.07 74.80 27.89Q74.71 26.71 74.71 26.03L74.71 26.03L74.71 10.11L78.58 10.11L78.58 26.33Q78.58 27.06 78.64 28.06Q78.70 29.07 79.00 30.10Q79.31 31.12 80.01 32.03Q80.71 32.95 81.97 33.50Q83.22 34.05 85.20 34.05L85.20 34.05Q88.46 34.05 90.38 32.30Q92.30 30.55 92.30 26.45L92.30 26.45L92.30 10.11L93.97 10.11L93.97 25.54Q93.97 26.45 93.88 27.74Q93.78 29.03 93.35 30.42Q92.91 31.81 91.87 33.02Q90.82 34.24 88.96 34.98Q87.10 35.72 84.13 35.72ZM106.78 35.72L106.78 35.72Q104.54 35.72 102.54 35.19Q100.55 34.66 99.45 34.24L99.45 34.24L99.45 32.45Q100.09 32.76 101.19 33.23Q102.30 33.71 103.63 34.05Q104.96 34.39 106.21 34.39L106.21 34.39Q108.72 34.39 110.26 33.08Q111.80 31.77 111.80 29.37L111.80 29.37Q111.80 27.89 110.92 26.83Q110.05 25.76 108.66 24.89Q107.27 24.02 105.72 23.20Q104.16 22.38 102.77 21.41Q101.38 20.44 100.51 19.13Q99.64 17.82 99.64 16.04L99.64 16.04Q99.64 14.55 100.43 13.09Q101.23 11.63 102.98 10.64Q104.73 9.65 107.58 9.65L107.58 9.65Q109.14 9.65 110.96 10.03Q112.78 10.41 114.11 10.83L114.11 10.83L113.73 13.41Q111.53 12.46 109.36 11.84Q107.20 11.21 104.96 11.21L104.96 11.21Q103.85 11.74 103.42 12.60Q102.98 13.45 102.98 14.48L102.98 14.48Q102.98 16.00 103.89 17.16Q104.80 18.32 106.27 19.28Q107.73 20.25 109.35 21.17Q110.96 22.08 112.42 23.14Q113.89 24.21 114.80 25.54Q115.71 26.87 115.71 28.65L115.71 28.65Q115.71 30.63 114.72 32.24Q113.73 33.86 111.76 34.79Q109.78 35.72 106.78 35.72ZM142.61 35.72L142.61 35.72Q139.95 35.72 137.47 34.98Q134.98 34.24 132.98 32.72Q130.99 31.20 129.83 28.88Q128.67 26.56 128.67 23.41L128.67 23.41Q128.67 19.76 130.02 17.16Q131.37 14.55 133.55 12.88Q135.74 11.21 138.30 10.43Q140.87 9.65 143.30 9.65L143.30 9.65Q144.48 9.65 145.77 9.84Q147.06 10.03 148.16 10.30Q149.26 10.56 149.87 10.83L149.87 10.83L149.49 13.38Q147.29 12.43 145.24 11.82Q143.18 11.21 140.98 11.21L140.98 11.21Q137.18 12.16 134.94 15.26Q132.70 18.35 132.70 22.80L132.70 22.80Q132.70 26.60 134.08 29.18Q135.47 31.77 137.86 33.08Q140.26 34.39 143.34 34.39L143.34 34.39Q144.21 34.39 145.08 34.29Q145.96 34.20 146.79 34.01L146.79 34.01L146.79 24.43L150.48 24.43L150.48 34.43Q149.34 34.88 147.93 35.17Q146.53 35.45 145.14 35.59Q143.75 35.72 142.61 35.72ZM176.59 35.26L172.18 35.80L163.36 23.26L160.44 23.26L160.44 35.26L156.71 35.26L156.71 10.11L164.92 10.11Q167.39 10.11 169.37 10.85Q171.34 11.59 172.50 13.01Q173.66 14.44 173.66 16.53L173.66 16.53Q173.66 19.23 171.61 20.80Q169.56 22.38 166.40 22.95L166.40 22.95L176.59 35.26ZM160.44 12.16L160.44 22.12L162.87 22.12Q165.64 22.12 167.10 21.32Q168.57 20.52 169.14 19.28Q169.71 18.05 169.71 16.72L169.71 16.72Q169.71 16.53 169.61 15.86Q169.52 15.20 169.14 14.34Q168.76 13.49 167.90 12.71Q167.05 11.93 165.53 11.51L165.53 11.51Q164.43 11.51 162.93 11.70Q161.42 11.89 160.44 12.16L160.44 12.16ZM190.19 35.72L190.19 35.72Q187.04 35.72 184.45 34.29Q181.87 32.87 180.35 30.11Q178.83 27.36 178.83 23.37L178.83 23.37Q178.83 20.25 179.66 17.94Q180.50 15.62 181.93 14.04Q183.35 12.46 185.12 11.49Q186.88 10.53 188.76 10.09Q190.65 9.65 192.39 9.65L192.39 9.65Q195.59 9.65 198.17 11.06Q200.75 12.46 202.27 15.20Q203.79 17.94 203.79 21.93L203.79 21.93Q203.79 25.04 202.96 27.36Q202.12 29.68 200.68 31.27Q199.23 32.87 197.47 33.86Q195.70 34.85 193.82 35.28Q191.94 35.72 190.19 35.72ZM191.29 34.47L191.29 34.47Q193.57 34.47 195.19 33.36Q196.80 32.26 197.81 30.51Q198.82 28.77 199.29 26.71Q199.77 24.66 199.77 22.80L199.77 22.80Q199.77 20.44 199.29 18.33Q198.82 16.23 197.73 14.63Q196.65 13.03 194.84 12.12Q193.04 11.21 190.34 11.21L190.34 11.21Q187.80 12.08 186.12 13.87Q184.45 15.66 183.65 17.97Q182.86 20.29 182.86 22.80L182.86 22.80Q182.86 25.12 183.33 27.23Q183.81 29.34 184.79 30.97Q185.78 32.60 187.40 33.53Q189.01 34.47 191.29 34.47ZM217.36 35.72L217.36 35.72Q214.55 35.72 212.76 34.94Q210.98 34.16 209.97 32.96Q208.96 31.77 208.54 30.42Q208.13 29.07 208.03 27.89Q207.94 26.71 207.94 26.03L207.94 26.03L207.94 10.11L211.81 10.11L211.81 26.33Q211.81 27.06 211.87 28.06Q211.93 29.07 212.23 30.10Q212.53 31.12 213.24 32.03Q213.94 32.95 215.19 33.50Q216.45 34.05 218.42 34.05L218.42 34.05Q221.69 34.05 223.61 32.30Q225.53 30.55 225.53 26.45L225.53 26.45L225.53 10.11L227.20 10.11L227.20 25.54Q227.20 26.45 227.11 27.74Q227.01 29.03 226.58 30.42Q226.14 31.81 225.09 33.02Q224.05 34.24 222.19 34.98Q220.32 35.72 217.36 35.72ZM237.16 35.26L233.47 35.26L233.47 10.11L241.64 10.11Q244.15 10.11 246.13 10.89Q248.10 11.67 249.24 13.11Q250.38 14.55 250.38 16.64L250.38 16.64Q250.38 19.11 249.13 20.77Q247.87 22.42 245.63 23.24Q243.39 24.05 240.43 24.05L240.43 24.05L237.16 24.05L237.16 35.26ZM237.16 12.12L237.16 22.95L240.54 22.95Q242.48 22.95 243.66 22.27Q244.83 21.58 245.44 20.56Q246.05 19.53 246.26 18.51Q246.47 17.48 246.47 16.83L246.47 16.83Q246.47 16.61 246.37 15.92Q246.28 15.24 245.88 14.36Q245.48 13.49 244.63 12.69Q243.77 11.89 242.25 11.48L242.25 11.48Q241.07 11.48 239.59 11.67Q238.11 11.86 237.16 12.12L237.16 12.12Z"
                    transform="translate(0, 0)"
                ></path>
            </g>
        </svg>
    </g>
</svg>
