<svg id="Layer_1" data-name="Layer 1" xmlns="http://www.w3.org/2000/svg" viewBox="0 0 68.03 10.29"><defs><style>.cls-1,.cls-2{fill:#3e66ad;}.cls-2,.cls-3{fill-rule:evenodd;}.cls-3{fill:#171617;}</style></defs><title>nexus</title><path class="cls-1" d="M8.93,17.48l0.68,0,0.79,0H12l0.83,0,0.83,0h0.68a5.28,5.28,0,0,1-.58.33H9.34a4.31,4.31,0,0,1-.42-0.22h0Z" transform="translate(-4.45 -7.41)"/><path class="cls-1" d="M7.82,16.63l1.44-.05,0.87,0,0.45,0,0.45,0,1.82-.05c0.87,0,1.74,0,2.59,0a4.18,4.18,0,0,1-.35.36l-2.23.05H8l-0.22-.21h0Z" transform="translate(-4.45 -7.41)"/><path class="cls-1" d="M7.13,15.76l1.79-.08,1.92-.09c0.66,0,1.32,0,2-.05l2,0h1.25c-0.08.13-.15,0.26-0.24,0.39h-1l-2,0c-0.67,0-1.33,0-2,0H7.27l-0.13-.2h0Z" transform="translate(-4.45 -7.41)"/><path class="cls-1" d="M6.69,14.88l1.89-.08c0.68,0,1.37-.08,2.08-0.1l2.15,0,2.15,0,1.05,0h0.45a4.26,4.26,0,0,1-.15.41H16L15,15l-2.15,0-2.15,0-2.09,0H6.78l-0.08-.2h0Z" transform="translate(-4.45 -7.41)"/><path class="cls-1" d="M6.44,14l1.81-.08,1.11-.06,0.57,0h0.57l2.32,0,2.32,0,1.13,0h0.42c0,0.14,0,.28-0.08.42H16.27l-1.13,0-2.32,0-2.32,0H9.36l-1.11,0H6.48c0-.07,0-0.13,0-0.2h0Z" transform="translate(-4.45 -7.41)"/><path class="cls-1" d="M6.34,13.12L7.91,13l0.59,0,0.6,0,0.6,0h0.61l2.48,0,2.49,0,1.22,0h0.24c0,0.05,0,.11,0,0.17s0,0.17,0,.25H16.5l-1.22,0-2.49,0-2.49,0h-4c0-.07,0-0.13,0-0.2h0Z" transform="translate(-4.45 -7.41)"/><path class="cls-1" d="M6.39,12.23l1.17-.05,1.26-.07,0.65,0c0.22,0,.43,0,0.65,0l2.64,0,2.65,0,1.22,0c0,0.13,0,.27.07,0.42l-1.27,0-2.65,0-2.65,0H8.83l-1.26,0H6.37c0-.07,0-0.13,0-0.2h0Z" transform="translate(-4.45 -7.41)"/><path class="cls-1" d="M6.6,11.34H6.66l1.26-.06,1.3-.07H9.55l0.33,0h0.66l1.33,0,2.65,0,1.3,0h0.55a3.9,3.9,0,0,1,.15.42H15.82l-1.3,0-2.65,0-1.33,0H9.23l-1.3,0H6.54l0.06-.21h0Z" transform="translate(-4.45 -7.41)"/><path class="cls-1" d="M7,10.45l1.32-.06,0.66,0,0.66,0,0.67,0H11l4.94-.09a4.47,4.47,0,0,1,.24.42L11,10.69H6.89L7,10.45H7Z" transform="translate(-4.45 -7.41)"/><path class="cls-1" d="M7.65,9.54l2.42-.11,1.33-.06,1.32,0,2.5,0a4.9,4.9,0,0,1,.36.41H15.28l-2.56,0-1.32,0H10.07l-2.62,0,0.2-.23h0Z" transform="translate(-4.45 -7.41)"/><path class="cls-1" d="M8.71,8.63l0.46,0,2.64-.1c0.78,0,1.54,0,2.28,0a4.44,4.44,0,0,1,.57.37H14.38c-0.83,0-1.69,0-2.56,0H8.35l0.35-.25h0Z" transform="translate(-4.45 -7.41)"/><path class="cls-1" d="M12.86,8L10.14,8a5.15,5.15,0,0,1,1.39-.19A5.21,5.21,0,0,1,12.86,8h0Z" transform="translate(-4.45 -7.41)"/><path class="cls-2" d="M8.52,17.08v0.09a0.19,0.19,0,0,0,.1,0h0l0.25,0.12h1.47l0.18-.3H9.15Zm0.13,0.13h0Zm0,0h0Zm0,0h0Z" transform="translate(-4.45 -7.41)"/><path class="cls-2" d="M8.48,16.17v0.29h2.36l0.23-.37-1.29,0-0.45,0H8.48Z" transform="translate(-4.45 -7.41)"/><path class="cls-2" d="M4.54,15.43l-0.09.15h1.9l0.14-.23-0.61,0Zm3.89-.16,0,0.33H9.61c0.58,0,1.17,0,1.76,0l0.25-.43h0c-0.67,0-1.33,0-2,.05Z" transform="translate(-4.45 -7.41)"/><path class="cls-2" d="M10,14.69V14.31H9.42l-1,0,0,0.36h1l2.15,0H11.9l0.25-.42H11.57l-1.34,0Zm-4.92-.17L5,14.7H6.87L7,14.43l-1.65.07H5.09Z" transform="translate(-4.45 -7.41)"/><path class="cls-2" d="M10,13.85V13.43H8.67l-0.33,0,0,0.39H10ZM5.63,13.6l-0.13.23H7.38l0.2-.33L7,13.54Zm6.8,0.2,0.25-.42-1.13,0H10.77l-0.25.43,1,0Z" transform="translate(-4.45 -7.41)"/><path class="cls-2" d="M9.94,13l0-.42H8.29l0,0.4H9.06Zm-3.76-.27-0.06.11L6,12.95H7.91l0.23-.39-0.29,0-0.6,0-0.59,0-0.48,0h0ZM13,12.91l0.25-.43-1.68,0H11.3L11,12.94h0.5Z" transform="translate(-4.45 -7.41)"/><path class="cls-2" d="M9.9,12.08l0-.42-1,0c-0.22,0-.44,0-0.65,0l-0.64,0-0.86,0-0.17.29H8.88ZM13.5,12l0.25-.42-1.92,0L11.58,12Z" transform="translate(-4.45 -7.41)"/><path class="cls-2" d="M9.86,11.2V10.78H8.63l-0.33,0H8l-0.71,0-0.19.32H9.86ZM14,11.12l0.25-.43-1,0h-0.9l-0.25.43,1.15,0H14Z" transform="translate(-4.45 -7.41)"/><path class="cls-2" d="M9.83,10.31l0-.42H9l-0.66,0L7.8,10l-0.2.33H9.83Zm4.75-.09,0.25-.43-1.92,0-0.1.16-0.16.26Z" transform="translate(-4.45 -7.41)"/><path class="cls-2" d="M15.12,9.3l0,0,0.19-.32h-1.9l-0.25.42H14l0.62,0h0.47Z" transform="translate(-4.45 -7.41)"/><path class="cls-2" d="M15.68,8.38l0.18-.29H14l-0.08.14-0.14.23,1.8-.07h0.15Z" transform="translate(-4.45 -7.41)"/><polygon class="cls-2" points="11.64 0.23 11.78 0 10.04 0.01 9.88 0.01 9.71 0.3 10.04 0.29 11.64 0.23"/><path class="cls-3" d="M24.7,15.61H24.56l-3.49-4.37h0v4.28H20.69V10.25h0.59l3,3.84h0V10.25H24.7v5.36Zm4.6-.09H26.13V10.25h3.19l-0.08.53-1.48-.24a2.46,2.46,0,0,0-.43,0l-0.43.1h0v1.94h1.77v0.3H26.9v2.33L29.38,15Zm1.32,0H30.13l2-2.55-1.9-2.72h1l1.32,2.19,1.66-2.19h0.49l-2,2.44,2.08,2.83h-1l-1.5-2.32Zm7,0.1h0a2.39,2.39,0,0,1-1-.17A1.51,1.51,0,0,1,36.06,15a1.47,1.47,0,0,1-.3-0.54A2.56,2.56,0,0,1,35.66,14c0-.17,0-0.3,0-0.39h0V10.25h0.81v3.4c0,0.11,0,.23,0,0.36a1.9,1.9,0,0,0,.08.43,1.23,1.23,0,0,0,.21.41,1,1,0,0,0,.41.31,1.68,1.68,0,0,0,.68.11h0a1.55,1.55,0,0,0,1.09-.36,1.6,1.6,0,0,0,.4-1.23h0V10.25h0.35v3.24c0,0.12,0,.28,0,0.46a2.41,2.41,0,0,1-.11.56,1.49,1.49,0,0,1-.31.55,1.47,1.47,0,0,1-.61.41,2.75,2.75,0,0,1-1,.16h0Zm4.75,0h0a3.39,3.39,0,0,1-.89-0.11,6.66,6.66,0,0,1-.65-0.2h0V14.93l0.36,0.17a3.06,3.06,0,0,0,.51.17,2.19,2.19,0,0,0,.54.07h0a1.28,1.28,0,0,0,.85-0.27,1,1,0,0,0,.32-0.78h0a0.8,0.8,0,0,0-.19-0.53,2,2,0,0,0-.47-0.41L42.14,13a5.56,5.56,0,0,1-.62-0.37A1.73,1.73,0,0,1,41,12.14a1.12,1.12,0,0,1-.19-0.65h0A1.27,1.27,0,0,1,41,10.88a1.33,1.33,0,0,1,.54-0.52,1.94,1.94,0,0,1,1-.21h0a3.19,3.19,0,0,1,.71.08,6,6,0,0,1,.66.17h0l-0.08.54a7.33,7.33,0,0,0-.92-0.33A3.17,3.17,0,0,0,42,10.48h0a0.69,0.69,0,0,0-.32.29,0.83,0.83,0,0,0-.09.39h0a0.88,0.88,0,0,0,.19.57,2,2,0,0,0,.5.45c0.2,0.13.42,0.27,0.65,0.39a6.71,6.71,0,0,1,.64.42,2,2,0,0,1,.5.5,1.11,1.11,0,0,1,.19.65h0a1.37,1.37,0,0,1-.83,1.29,2.46,2.46,0,0,1-1,.2h0Zm7.51,0h0a3.71,3.71,0,0,1-1.08-.16A2.8,2.8,0,0,1,47.86,15a2.21,2.21,0,0,1-.66-0.8A2.54,2.54,0,0,1,47,13h0a2.83,2.83,0,0,1,.28-1.31,2.63,2.63,0,0,1,.74-0.9,3.18,3.18,0,0,1,1-.51,3.56,3.56,0,0,1,1-.16h0a4,4,0,0,1,.52,0l0.5,0.1a2.29,2.29,0,0,1,.36.11h0l-0.08.53a8.53,8.53,0,0,0-.89-0.33,3.14,3.14,0,0,0-.9-0.13h0a2.17,2.17,0,0,0-1.27.85,2.63,2.63,0,0,0-.47,1.58h0a2.76,2.76,0,0,0,.29,1.34,2,2,0,0,0,.79.82,2.37,2.37,0,0,0,1.15.27h0l0.37,0,0.35-.06h0v-2h0.78v2.1a3.09,3.09,0,0,1-.54.15,4.93,4.93,0,0,1-.58.09l-0.53,0h0Zm7.12-.1-0.92.11L54.23,13H53.61v2.51H52.83V10.25h1.72a2.73,2.73,0,0,1,.93.15,1.54,1.54,0,0,1,.66.45,1.13,1.13,0,0,1,.24.74h0a1.07,1.07,0,0,1-.43.9,2.44,2.44,0,0,1-1.09.45h0Zm-3.39-4.84v2.09h0.51A1.92,1.92,0,0,0,55,12.6a0.92,0.92,0,0,0,.43-0.43,1.26,1.26,0,0,0,.12-0.54h0a1.37,1.37,0,0,0,0-.18,1.34,1.34,0,0,0-.1-0.32,1,1,0,0,0-.26-0.34,1.25,1.25,0,0,0-.5-0.25h0a4.12,4.12,0,0,0-.55,0,3.44,3.44,0,0,0-.52.1h0Zm6.24,4.94h0a2.42,2.42,0,0,1-1.2-.3,2.2,2.2,0,0,1-.86-0.88A2.91,2.91,0,0,1,57.47,13h0a3.4,3.4,0,0,1,.17-1.14,2.44,2.44,0,0,1,.47-0.82,2.65,2.65,0,0,1,.67-0.54,3.08,3.08,0,0,1,.76-0.29,3.36,3.36,0,0,1,.76-0.09h0a2.46,2.46,0,0,1,1.22.3,2.11,2.11,0,0,1,.86.87,2.89,2.89,0,0,1,.32,1.41h0a3.27,3.27,0,0,1-.18,1.13,2.36,2.36,0,0,1-.48.82,2.75,2.75,0,0,1-.67.54,2.79,2.79,0,0,1-.77.3,3.31,3.31,0,0,1-.76.1h0Zm0.23-.26h0a1.39,1.39,0,0,0,.82-0.23,1.79,1.79,0,0,0,.55-0.6,2.89,2.89,0,0,0,.31-0.79,3.61,3.61,0,0,0,.1-0.82h0a4.24,4.24,0,0,0-.1-0.94,2.26,2.26,0,0,0-.33-0.78,1.54,1.54,0,0,0-.6-0.53,2.07,2.07,0,0,0-.94-0.19h0A2.11,2.11,0,0,0,59,11a2.35,2.35,0,0,0-.52.86,3.13,3.13,0,0,0-.17,1h0a4.22,4.22,0,0,0,.1.93,2.66,2.66,0,0,0,.31.79,1.5,1.5,0,0,0,.55.54,1.61,1.61,0,0,0,.81.2h0Zm5.47,0.26h0a2.43,2.43,0,0,1-1-.17A1.58,1.58,0,0,1,64,15a1.53,1.53,0,0,1-.3-0.54A2.59,2.59,0,0,1,63.59,14c0-.17,0-0.3,0-0.39h0V10.25h0.81v3.4c0,0.11,0,.23,0,0.36a1.89,1.89,0,0,0,.07.43,1.24,1.24,0,0,0,.22.41,1,1,0,0,0,.41.31,1.71,1.71,0,0,0,.68.11h0a1.56,1.56,0,0,0,1.09-.36,1.6,1.6,0,0,0,.4-1.23h0V10.25h0.35v3.24c0,0.12,0,.28,0,0.46a2.69,2.69,0,0,1-.11.56,1.51,1.51,0,0,1-.32.55,1.44,1.44,0,0,1-.61.41,2.73,2.73,0,0,1-1,.16h0Zm4.15-.1H68.93V10.25h1.71a2.53,2.53,0,0,1,.94.16,1.54,1.54,0,0,1,.65.46,1.17,1.17,0,0,1,.24.74h0a1.39,1.39,0,0,1-.26.87,1.57,1.57,0,0,1-.73.52,3.15,3.15,0,0,1-1.09.17H69.7v2.35Zm0-4.85v2.27h0.71a1.36,1.36,0,0,0,.66-0.14,1.12,1.12,0,0,0,.37-0.36A1.48,1.48,0,0,0,71.61,12a1.89,1.89,0,0,0,0-.35h0s0-.09,0-0.19a1.08,1.08,0,0,0-.1-0.33,1.16,1.16,0,0,0-.26-0.35,1.19,1.19,0,0,0-.5-0.25h0a4.93,4.93,0,0,0-.56,0,3.82,3.82,0,0,0-.51.1h0Z" transform="translate(-4.45 -7.41)"/></svg>