<svg id="Layer_1" data-name="Layer 1" xmlns="http://www.w3.org/2000/svg" viewBox="0 0 387.7 63.18"><defs><style>.cls-1,.cls-2{fill-rule:evenodd;}.cls-2{fill:#4ba55e;}</style></defs><path class="cls-1" d="M113.16,58.57h-.8L91.69,32.72h-.18V58H89.44V26.82h3.48l18,22.7h.19V26.82h2.07V58.57ZM140.38,58H121.65V26.82h18.92L140.1,30l-8.78-1.46a14.42,14.42,0,0,0-2.54.21c-.79.15-1.64.34-2.55.59h0V40.79h10.48v1.79H126.23V56.36l14.62-1.47L140.38,58Zm7.84,0h-2.88l11.79-15.13L145.91,26.82h5.89l7.82,13,9.82-13h2.88L160.67,41.26,173,58h-5.89l-8.88-13.76L148.22,58Zm41.41.58h0a14.48,14.48,0,0,1-5.71-1,9.36,9.36,0,0,1-3.46-2.46A8.88,8.88,0,0,1,178.69,52a15.19,15.19,0,0,1-.64-3.15c-.08-1-.11-1.74-.11-2.3h0V26.82h4.8V47c0,.6,0,1.32.07,2.15a11.41,11.41,0,0,0,.45,2.53A7.54,7.54,0,0,0,184.52,54,5.9,5.9,0,0,0,187,55.86a10.11,10.11,0,0,0,4,.68h0a9.17,9.17,0,0,0,6.43-2.17q2.38-2.17,2.38-7.26h0V26.82h2.08V46q0,1.13-.12,2.73a15.4,15.4,0,0,1-.65,3.33,9.26,9.26,0,0,1-1.84,3.22,9.16,9.16,0,0,1-3.61,2.44,16.52,16.52,0,0,1-6,.92Zm28.12,0h0a20.46,20.46,0,0,1-5.27-.66c-1.64-.44-2.92-.83-3.83-1.18h0V54.56q.79.38,2.16,1a19.92,19.92,0,0,0,3,1A13,13,0,0,0,217,57h0a7.52,7.52,0,0,0,5-1.62A5.74,5.74,0,0,0,224,50.73h0a4.77,4.77,0,0,0-1.09-3.15,11.23,11.23,0,0,0-2.81-2.41c-1.15-.72-2.37-1.42-3.65-2.1a34.89,34.89,0,0,1-3.66-2.22A10.64,10.64,0,0,1,210,38a6.76,6.76,0,0,1-1.08-3.84h0a7.67,7.67,0,0,1,1-3.66,8,8,0,0,1,3.17-3,11.54,11.54,0,0,1,5.71-1.23h0a21,21,0,0,1,4.2.47c1.5.32,2.81.65,3.91,1h0l-.47,3.2A43.83,43.83,0,0,0,221,29a19.48,19.48,0,0,0-5.46-.78h0a3.87,3.87,0,0,0-1.91,1.72,5,5,0,0,0-.55,2.34h0a5.23,5.23,0,0,0,1.13,3.32,12.32,12.32,0,0,0,3,2.64q1.81,1.2,3.83,2.34A41.27,41.27,0,0,1,224.75,43a12.07,12.07,0,0,1,2.95,3,6.6,6.6,0,0,1,1.13,3.86h0a8.36,8.36,0,0,1-1.23,4.46,8.25,8.25,0,0,1-3.67,3.16,14.53,14.53,0,0,1-6.18,1.16Zm44.48,0h0a22.27,22.27,0,0,1-6.38-.92,17.45,17.45,0,0,1-5.58-2.81,13.6,13.6,0,0,1-3.91-4.77,15,15,0,0,1-1.44-6.79h0a16.65,16.65,0,0,1,1.68-7.76A15.66,15.66,0,0,1,251,30.26a18.71,18.71,0,0,1,5.9-3,21.1,21.1,0,0,1,6.2-1h0a20.74,20.74,0,0,1,3.07.24,28,28,0,0,1,3,.57,11.49,11.49,0,0,1,2.12.66h0l-.47,3.16A47.5,47.5,0,0,0,265.49,29a18.34,18.34,0,0,0-5.29-.76h0a12.72,12.72,0,0,0-7.49,5,15.45,15.45,0,0,0-2.78,9.36h0a16.69,16.69,0,0,0,1.71,7.92,11.66,11.66,0,0,0,4.69,4.84,14,14,0,0,0,6.8,1.62h0a19.55,19.55,0,0,0,2.16-.12,16.31,16.31,0,0,0,2.13-.35h0V44.6H272V57a18.56,18.56,0,0,1-3.17.92,34.84,34.84,0,0,1-3.46.52c-1.15.11-2.2.17-3.14.17ZM304.41,58l-5.47.67L288,43.15h-3.63V58h-4.63V26.82h10.19a15.76,15.76,0,0,1,5.53.92,9,9,0,0,1,3.88,2.68,6.72,6.72,0,0,1,1.44,4.37h0a6.3,6.3,0,0,1-2.54,5.3,14.65,14.65,0,0,1-6.47,2.67h0L304.41,58ZM284.36,29.37V41.73h3a11.18,11.18,0,0,0,5.25-1,5.57,5.57,0,0,0,2.53-2.53,7.52,7.52,0,0,0,.71-3.18h0a10.19,10.19,0,0,0-.12-1.07,7.3,7.3,0,0,0-.59-1.89,6.22,6.22,0,0,0-1.54-2,7,7,0,0,0-2.94-1.49h0a25.75,25.75,0,0,0-3.23.24,20.59,20.59,0,0,0-3.09.57Zm36.93,29.25h0a14.52,14.52,0,0,1-7.12-1.78,12.79,12.79,0,0,1-5.09-5.19,17.06,17.06,0,0,1-1.89-8.37h0a20.11,20.11,0,0,1,1-6.74A14.6,14.6,0,0,1,311,31.7a15,15,0,0,1,4-3.16,17.59,17.59,0,0,1,4.52-1.74,19.56,19.56,0,0,1,4.51-.55h0A14.67,14.67,0,0,1,331.2,28a12.66,12.66,0,0,1,5.09,5.14,17,17,0,0,1,1.89,8.36h0a20.19,20.19,0,0,1-1,6.74,14.6,14.6,0,0,1-2.83,4.85,16,16,0,0,1-4,3.22,17,17,0,0,1-4.53,1.76,20.05,20.05,0,0,1-4.51.55Zm1.37-1.56h0a8.4,8.4,0,0,0,4.84-1.37,10.73,10.73,0,0,0,3.25-3.54,16.75,16.75,0,0,0,1.84-4.72,21.15,21.15,0,0,0,.6-4.85h0a24.72,24.72,0,0,0-.6-5.55,13.12,13.12,0,0,0-1.94-4.6,9.25,9.25,0,0,0-3.58-3.11,12.23,12.23,0,0,0-5.59-1.13h0a12.7,12.7,0,0,0-5.24,3.3,14.18,14.18,0,0,0-3.06,5.09,18.33,18.33,0,0,0-1,6h0a25.2,25.2,0,0,0,.59,5.5,15.87,15.87,0,0,0,1.81,4.64,9,9,0,0,0,3.24,3.18,9.49,9.49,0,0,0,4.83,1.16ZM355,58.62h0a14.51,14.51,0,0,1-5.71-1,9.45,9.45,0,0,1-3.46-2.46A9.07,9.07,0,0,1,344.07,52a15.13,15.13,0,0,1-.63-3.15c-.07-1-.11-1.74-.11-2.3h0V26.82h4.8V47c0,.6,0,1.32.08,2.15a12,12,0,0,0,.44,2.53A7.16,7.16,0,0,0,349.91,54a6,6,0,0,0,2.42,1.83,10.18,10.18,0,0,0,4,.68h0a9.18,9.18,0,0,0,6.44-2.17q2.39-2.17,2.39-7.26h0V26.82h2.07V46c0,.75,0,1.66-.11,2.73a16.07,16.07,0,0,1-.66,3.33A9,9,0,0,1,361,57.7a16.59,16.59,0,0,1-6,.92ZM379.6,58H375V26.82h10.14a15.25,15.25,0,0,1,5.58,1,9,9,0,0,1,3.86,2.76A6.85,6.85,0,0,1,396,34.93h0a8.27,8.27,0,0,1-1.55,5.13,9.37,9.37,0,0,1-4.34,3.06,19,19,0,0,1-6.46,1H379.6V58Zm0-28.72V42.76h4.2a7.74,7.74,0,0,0,3.87-.84,6.1,6.1,0,0,0,2.21-2.12,8.2,8.2,0,0,0,1-2.55,11.21,11.21,0,0,0,.26-2.09h0A10.36,10.36,0,0,0,391,34a7.22,7.22,0,0,0-.61-1.94A6.76,6.76,0,0,0,388.88,30a6.89,6.89,0,0,0-3-1.51h0a25.74,25.74,0,0,0-3.3.24,22.68,22.68,0,0,0-3,.56Z" transform="translate(-8.31 -10.89)"/><path class="cls-2" d="M75.71,42.29a26,26,0,0,1-2.95,1.46,55.25,55.25,0,0,1-10,2.88c-3.24.66-6.51,1.07-9.79,1.42-1.81.2-3.64.29-5.46.37-2.61.11-5.22.21-7.84.16a122.51,122.51,0,0,1-14.7-1c-3-.43-6-.95-8.91-1.67a51.4,51.4,0,0,1-6.9-2.23c-.62-.25-1-.57-.86-1.25a8.83,8.83,0,0,0,0-1.15c0-.56.08-.62.59-.38,1.37.63,2.76,1.21,4.18,1.71a65.29,65.29,0,0,0,11.79,2.9q5.31.83,10.66,1.13c4,.22,8,.25,12,.15a122.86,122.86,0,0,0,13-1c4.51-.61,10.35-1.5,14.52-3.34A.87.87,0,0,1,75.71,42.29Z" transform="translate(-8.31 -10.89)"/><path class="cls-2" d="M75,49.05a10.92,10.92,0,0,1-2.27,1.3A58.41,58.41,0,0,1,58.6,54.1c-2.72.42-5.45.76-8.19,1-1.25.09-2.51.16-3.76.22-3.06.13-6.13.18-9.19.09a112.42,112.42,0,0,1-15.65-1.45,61.09,61.09,0,0,1-11.16-2.84c-1.32-.49-1.31-.51-1.6-1.87-.07-.32-.14-.65-.22-1s.07-.5.44-.32c1.14.54,2.32,1,3.51,1.44a65.14,65.14,0,0,0,11.63,2.92Q29,53,33.62,53.35c1.7.12,3.4.18,5.1.23,1.4,0,2.79.1,4.18.08,3.77-.06,7.53-.15,11.29-.47,5.74-.49,15-1.5,20.26-3.93A5.54,5.54,0,0,1,75,49.05Z" transform="translate(-8.31 -10.89)"/><path class="cls-2" d="M74.78,35.31c-.13.31-.37.36-.56.45a36.59,36.59,0,0,1-7.53,2.85,82.76,82.76,0,0,1-13.08,2.32c-3.3.34-6.61.5-9.93.61-2.64.09-5.26,0-7.89-.07a104.19,104.19,0,0,1-10.58-.95,67.74,67.74,0,0,1-12.06-2.64,27.81,27.81,0,0,1-3.74-1.45.51.51,0,0,1-.33-.67c.12-.45.23-.91.33-1.36s.25-.42.59-.27c1.26.58,2.54,1.1,3.85,1.57a61.77,61.77,0,0,0,8.9,2.38A97.81,97.81,0,0,0,33.68,39.5c2.42.2,4.85.22,7.27.33s4.78,0,7.17-.07c7.64-.2,18-1.27,25-3.79C73.65,35.78,74.18,35.55,74.78,35.31Z" transform="translate(-8.31 -10.89)"/><path class="cls-2" d="M72.8,29.37a18.52,18.52,0,0,1-4.19,2A59.55,59.55,0,0,1,57.41,34a89.79,89.79,0,0,1-11,1c-1.62,0-3.24.17-4.85.15a118,118,0,0,1-15.37-1,63.77,63.77,0,0,1-12.32-2.88c-.87-.31-1.7-.72-2.56-1.07-.32-.14-.4-.32-.23-.63s.38-.75.54-1.13.34-.37.66-.22a42.59,42.59,0,0,0,4.93,1.91,64.54,64.54,0,0,0,9.21,2.18c2.31.39,4.63.66,7,.86,1.08.09,2.16.19,3.24.21,1.55,0,3.1.1,4.64.15,2,.07,4,0,6-.05a113.23,113.23,0,0,0,11.92-.92,77.61,77.61,0,0,0,9.31-1.79,36,36,0,0,0,3.79-1.29A.77.77,0,0,1,72.8,29.37Z" transform="translate(-8.31 -10.89)"/><path class="cls-2" d="M72.59,56.73a22.93,22.93,0,0,1-3.36,1.59A58.8,58.8,0,0,1,57.81,61.2c-3.16.5-6.34.81-9.53,1-2.83.18-5.67.29-8.51.24-3.31-.06-6.63-.23-9.93-.54a86.92,86.92,0,0,1-10-1.55,48.24,48.24,0,0,1-7-2,1.21,1.21,0,0,1-.7-.61c-.34-.73-.71-1.44-1.05-2.17-.06-.11-.17-.25,0-.36s.23,0,.33.07A48.52,48.52,0,0,0,22.76,59a78.45,78.45,0,0,0,8.91,1.33c2.81.25,5.62.43,8.45.51a115.24,115.24,0,0,0,11.75-.3c3-.22,6-.47,9-1A51.82,51.82,0,0,0,71.64,57l.88-.37Z" transform="translate(-8.31 -10.89)"/><path class="cls-2" d="M69.23,24a9.57,9.57,0,0,1-2.85,1.44,46.41,46.41,0,0,1-7.34,2,92.1,92.1,0,0,1-11.35,1.4A95.14,95.14,0,0,1,38,29a92.43,92.43,0,0,1-10.37-.91,56.7,56.7,0,0,1-10-2.27,31.78,31.78,0,0,1-3.1-1.24c-.31-.15-.4-.29-.19-.61.83-1.27.82-1.27,2.24-.66a49.7,49.7,0,0,0,12,3.22c2.58.4,5.18.67,7.79.86.73.06,1.47.1,2.21.12,1.55,0,3.1.12,4.64.09a114.29,114.29,0,0,0,15-1,66.67,66.67,0,0,0,8.28-1.66C67.41,24.62,68.31,24.26,69.23,24Z" transform="translate(-8.31 -10.89)"/><path class="cls-2" d="M67.69,64.17a22.26,22.26,0,0,1-5.45,2.32,60.36,60.36,0,0,1-9.7,1.94c-2.33.29-4.68.46-7,.57-2.58.12-5.16.13-7.74.06a78.42,78.42,0,0,1-16.29-2c-.81-.19-1.61-.46-2.42-.7a.87.87,0,0,1-.35-.2,24.15,24.15,0,0,1-2.53-2.63.26.26,0,0,1-.06-.29c12.73,5.23,29.73,5.56,43.33,3.15A39.84,39.84,0,0,0,67.69,64.17Z" transform="translate(-8.31 -10.89)"/><path class="cls-2" d="M64.73,18.72c-.12.22-.35.27-.54.37a32.06,32.06,0,0,1-7.86,2.52A68.88,68.88,0,0,1,45.9,22.84c-2.43.13-4.86.13-7.28.07a63.45,63.45,0,0,1-14.78-2,25.35,25.35,0,0,1-4.59-1.65c-.49-.24-.5-.28-.12-.65.81-.8.81-.79,1.86-.37a46.84,46.84,0,0,0,11.56,2.87c2.82.36,5.65.52,8.49.6a87.76,87.76,0,0,0,12.45-.58,57.62,57.62,0,0,0,8.06-1.43,22.2,22.2,0,0,0,2.89-.95C64.52,18.74,64.61,18.64,64.73,18.72Z" transform="translate(-8.31 -10.89)"/><path class="cls-2" d="M60,70.65a16,16,0,0,1-3.82,1.56,50.61,50.61,0,0,1-9.94,1.67c-2.37.19-4.74.22-7.12.18a60,60,0,0,1-8.87-.84,13.6,13.6,0,0,1-3-1.19c-.89-.4-1.73-.89-2.58-1.37-.08,0-.19-.07-.18-.25A50.26,50.26,0,0,0,42.26,73C48.27,73,54.25,72.56,60,70.65Z" transform="translate(-8.31 -10.89)"/><path class="cls-2" d="M58.41,14.42a8,8,0,0,1-2.09,1A36.09,36.09,0,0,1,48.68,17a62.54,62.54,0,0,1-8.65.38,47.88,47.88,0,0,1-12.27-1.72,20.42,20.42,0,0,1-2.49-1c-.35-.15-.36-.28,0-.49a1.63,1.63,0,0,1,1.68-.17,33.21,33.21,0,0,0,9.66,2.17,61.48,61.48,0,0,0,7.68.28A55.72,55.72,0,0,0,56.46,15C57.12,14.83,57.75,14.59,58.41,14.42Z" transform="translate(-8.31 -10.89)"/><path class="cls-2" d="M50.66,11.13c-3.78,2.16-14.57,2-17.73,0A1.39,1.39,0,0,1,34.24,11a27,27,0,0,0,10.54,1.07A23.5,23.5,0,0,0,50.66,11.13Z" transform="translate(-8.31 -10.89)"/></svg>